# xmcd
#
# Track frame offsets: 
#        150
#        20537
#        38439
#        52264
#        68024
#        84549
#        104199
#        120177
#        140493
#        158198
#        171810
#        185030
#        199663
#        214869
#        230892
#        246265
#
# Disc length: 3441 seconds
#
# Revision: 3
# Processed by: cddbd v1.5.2PL0 Copyright (c) Steve Scherf et al.
# Submitted via: ExactAudioCopy v1.1
#
DISCID=e80d6f10
DTITLE=Various Artist - The Winners 2002 - Disc 2
DYEAR=2002
DGENRE=Country
TTITLE0=Troy Cassar-Daley - 40 Miles
TTITLE1=Felicity - Planet of Love
TTITLE2=Red Rivers - Diesel Smoke
TTITLE3=Catherine Britt - 46 Miles from Alice
TTITLE4=Fisk and Christian - Fear of Falling
TTITLE5=Josh Arnold - The Man I Used to Be
TTITLE6=Beccy Cole - Too Strong to Break
TTITLE7=Kasey Chambers and Paul Kelly - I Still Pray
TTITLE8=The Wolverines - 65 Roses
TTITLE9=Brian Letton - The Land of Waltzing Matilda
TTITLE10=Kylie Sackley - Love's Like a Train
TTITLE11=Michael Fix - Up and About
TTITLE12=Tania Kernaghan - Goin' Bush
TTITLE13=Carter and Carter - Easy Making Love
TTITLE14=Colin Buchanan - Land of the Getaway
TTITLE15=Slim Dusty and Shorty Ranger - The Men from Nulla Nulla
EXTD=CMAA Golden Guitar Awards (Australia)
EXTT0=
EXTT1=
EXTT2=
EXTT3=
EXTT4=
EXTT5=
EXTT6=
EXTT7=
EXTT8=
EXTT9=
EXTT10=
EXTT11=
EXTT12=
EXTT13=
EXTT14=
EXTT15=
PLAYORDER=
